<?xml version="1.0" encoding="UTF-8" standalone="no"?>
<!-- Created with Inkscape (http://www.inkscape.org/) -->

<svg
   xmlns:dc="http://purl.org/dc/elements/1.1/"
   xmlns:cc="http://creativecommons.org/ns#"
   xmlns:rdf="http://www.w3.org/1999/02/22-rdf-syntax-ns#"
   xmlns:svg="http://www.w3.org/2000/svg"
   xmlns="http://www.w3.org/2000/svg"
   xmlns:xlink="http://www.w3.org/1999/xlink"
   xmlns:sodipodi="http://sodipodi.sourceforge.net/DTD/sodipodi-0.dtd"
   xmlns:inkscape="http://www.inkscape.org/namespaces/inkscape"
   width="17"
   height="44"
   id="svg2"
   version="1.1"
   inkscape:version="0.48.5 r10040"
   sodipodi:docname="New document 1">
  <defs
     id="defs4">
    <linearGradient
       gradientTransform="translate(-368.00764,35.356037)"
       y2="490.82504"
       x2="881.5011"
       y1="490.82504"
       x1="598.60864"
       gradientUnits="userSpaceOnUse"
       id="linearGradient3793"
       xlink:href="#linearGradient3013-7"
       inkscape:collect="always" />
    <linearGradient
       id="linearGradient3013-7">
      <stop
         id="stop3015-9"
         style="stop-color:#000000;stop-opacity:0.8263889"
         offset="0" />
      <stop
         id="stop3017-0"
         style="stop-color:#000000;stop-opacity:1"
         offset="1" />
    </linearGradient>
    <linearGradient
       y2="490.82504"
       x2="881.5011"
       y1="490.82504"
       x1="598.60864"
       gradientTransform="translate(-368.00764,35.356038)"
       gradientUnits="userSpaceOnUse"
       id="linearGradient3038"
       xlink:href="#linearGradient3013-7"
       inkscape:collect="always" />
    <linearGradient
       inkscape:collect="always"
       xlink:href="#linearGradient3013-7"
       id="linearGradient3019"
       gradientUnits="userSpaceOnUse"
       gradientTransform="translate(-368.00769,1043.7183)"
       x1="598.60864"
       y1="490.82504"
       x2="881.5011"
       y2="490.82504" />
  </defs>
  <sodipodi:namedview
     id="base"
     pagecolor="#ffffff"
     bordercolor="#666666"
     borderopacity="1.0"
     inkscape:pageopacity="0.0"
     inkscape:pageshadow="2"
     inkscape:zoom="11.2"
     inkscape:cx="9.4732014"
     inkscape:cy="14.294392"
     inkscape:document-units="px"
     inkscape:current-layer="layer1"
     showgrid="false"
     inkscape:window-width="1680"
     inkscape:window-height="988"
     inkscape:window-x="-8"
     inkscape:window-y="-8"
     inkscape:window-maximized="1" />
  <metadata
     id="metadata7">
    <rdf:RDF>
      <cc:Work
         rdf:about="">
        <dc:format>image/svg+xml</dc:format>
        <dc:type
           rdf:resource="http://purl.org/dc/dcmitype/StillImage" />
        <dc:title></dc:title>
      </cc:Work>
    </rdf:RDF>
  </metadata>
  <g
     inkscape:label="Layer 1"
     inkscape:groupmode="layer"
     id="layer1"
     transform="translate(0,-1008.3622)">
    <path
       clip-rule="evenodd"
       d="m 2.9535488,1048.6956 c 0,1.3894 1.5838788,2.9836 2.8120823,3.2155 0,0 1.3133624,0.3276 2.3941258,0.065 0.1952414,0.044 3.4716851,-0.5568 3.5371721,-4.9455 l -0.691024,-5.341 c 0.460493,-0.078 1.963074,-0.8032 2.426865,-1.0784 1.272714,-0.7551 1.829558,-1.8459 2.32534,-2.6529 0.556753,-1.2119 0.884293,-2.0391 0.884293,-3.3584 0,-3.3366 -2.703973,-6.0413 -6.039505,-6.0413 -0.480724,0 -0.9478043,0.057 -1.396535,0.1631 l -0.5960848,-4.2866 c 2.2572118,-2.5094 4.5452948,-5.594 5.3136598,-8.4205 0.753317,-3.7336 0.39303,-6.2554 -1.60486,-7.3364 -1.834077,-0.4256 -4.0605242,2.0797 -5.3712481,5.6988 -0.8515528,1.9324 0.2332568,5.6241 0.7205689,7.1399 -3.5901475,3.4416 -7.16204273,5.9099 -7.53276949,11.8744 0,4.6711 3.78538909,8.4573 8.45450929,8.4573 0.4461024,0 1.1830403,0.011 2.0214194,-0.098 l 0.394347,5.3339 c 0,0 0.151303,3.9014 -2.8179204,4.4301 -1.1784336,0.2095 -2.3149884,0.4525 -1.9880126,-0.3275 0.9183527,-0.4783 1.9880126,-1.2407 1.9880126,-2.4918 0,-1.557 -1.171938,-2.8192 -2.616937,-2.8192 -1.4455608,0 -2.6174988,1.2622 -2.6174988,2.8192 z m 5.3083933,-23.8735 0.5560948,4.0049 c -2.4635665,0.7619 -4.2537903,3.059 -4.2537903,5.7736 0,3.0719 3.6728561,4.5046 3.5733033,3.7754 -1.431922,-0.6177 -1.9625143,-1.3119 -1.9625143,-2.9706 0,-1.8747 1.2812766,-3.4493 3.015142,-3.898 l 1.3224864,9.5346 c -0.297428,0.081 -0.6183831,0.1487 -0.9661541,0.203 -5.0326061,-0.1018 -7.398029,-2.7793 -7.398029,-7.4503 1.174e-4,-2.6166 3.0813839,-5.6351 6.1134612,-8.9726 z m 2.6372609,16.1027 -1.3186327,-9.4979 c 0.2017366,-0.033 0.4094046,-0.049 0.6203627,-0.049 2.223152,0 4.025801,1.8032 4.025801,4.027 -0.0445,1.7896 -0.129756,4.4543 -3.327531,5.5194 z M 8.0943616,1020.928 c -0.9072543,-3.061 -0.087128,-4.5865 0.4453424,-5.7592 1.2583189,-2.7686 2.365333,-3.7756 3.492667,-4.6742 1.465983,0.5751 0.804319,4.6742 0.584231,4.6742 -0.690366,2.4184 -3.1670064,4.341 -4.5222404,5.7592 z"
       id="path11"
       inkscape:connector-curvature="0"
       style="fill:url(#linearGradient3019);fill-opacity:1;fill-rule:evenodd;stroke:#000000;stroke-width:0.05835;stroke-opacity:1" />
  </g>
</svg>
