<?xml version="1.0" encoding="UTF-8" standalone="no"?>
<!-- Created with Inkscape (http://www.inkscape.org/) -->

<svg
   xmlns:dc="http://purl.org/dc/elements/1.1/"
   xmlns:cc="http://creativecommons.org/ns#"
   xmlns:rdf="http://www.w3.org/1999/02/22-rdf-syntax-ns#"
   xmlns:svg="http://www.w3.org/2000/svg"
   xmlns="http://www.w3.org/2000/svg"
   xmlns:xlink="http://www.w3.org/1999/xlink"
   xmlns:sodipodi="http://sodipodi.sourceforge.net/DTD/sodipodi-0.dtd"
   xmlns:inkscape="http://www.inkscape.org/namespaces/inkscape"
   width="32"
   height="85"
   id="svg2"
   version="1.1"
   inkscape:version="0.48.5 r10040"
   sodipodi:docname="clef.svg">
  <defs
     id="defs4">
    <linearGradient
       gradientTransform="translate(-368.00764,35.356037)"
       y2="490.82504"
       x2="881.5011"
       y1="490.82504"
       x1="598.60864"
       gradientUnits="userSpaceOnUse"
       id="linearGradient3793"
       xlink:href="#linearGradient3013-7"
       inkscape:collect="always" />
    <linearGradient
       id="linearGradient3013-7">
      <stop
         id="stop3015-9"
         style="stop-color:#000000;stop-opacity:0.8263889"
         offset="0" />
      <stop
         id="stop3017-0"
         style="stop-color:#000000;stop-opacity:1"
         offset="1" />
    </linearGradient>
    <linearGradient
       y2="490.82504"
       x2="881.5011"
       y1="490.82504"
       x1="598.60864"
       gradientTransform="translate(-368.00764,35.356038)"
       gradientUnits="userSpaceOnUse"
       id="linearGradient3038"
       xlink:href="#linearGradient3013-7"
       inkscape:collect="always" />
  </defs>
  <sodipodi:namedview
     id="base"
     pagecolor="#ffffff"
     bordercolor="#666666"
     borderopacity="1.0"
     inkscape:pageopacity="0.0"
     inkscape:pageshadow="2"
     inkscape:zoom="11.2"
     inkscape:cx="-4.45537"
     inkscape:cy="67.865821"
     inkscape:document-units="px"
     inkscape:current-layer="layer1"
     showgrid="false"
     inkscape:window-width="1680"
     inkscape:window-height="988"
     inkscape:window-x="-8"
     inkscape:window-y="-8"
     inkscape:window-maximized="1" />
  <metadata
     id="metadata7">
    <rdf:RDF>
      <cc:Work
         rdf:about="">
        <dc:format>image/svg+xml</dc:format>
        <dc:type
           rdf:resource="http://purl.org/dc/dcmitype/StillImage" />
        <dc:title />
      </cc:Work>
    </rdf:RDF>
  </metadata>
  <g
     inkscape:label="Layer 1"
     inkscape:groupmode="layer"
     id="layer1"
     transform="translate(0,-967.3622)">
    <path
       clip-rule="evenodd"
       d="m 5.2417638,1037.3315 c 0,2.4113 2.7489045,5.1781 4.8805162,5.5806 0,0 2.279409,0.5686 4.155131,0.113 0.338852,0.076 6.025291,-0.9664 6.138946,-8.5833 l -1.199309,-9.2696 c 0.799209,-0.1352 3.40702,-1.3938 4.211951,-1.8715 2.208862,-1.3105 3.175297,-3.2036 4.035752,-4.6042 0.966273,-2.1035 1.534736,-3.539 1.534736,-5.8287 0,-5.7907 -4.692886,-10.4849 -10.481878,-10.4849 -0.834321,0 -1.644963,0.099 -2.423759,0.283 l -1.034536,-7.43964 c 3.917508,-4.35533 7.888596,-9.70891 9.222135,-14.61424 1.307421,-6.47994 0.682123,-10.85674 -2.785319,-12.73285 -3.183137,-0.73856 -7.047252,3.60941 -9.322082,9.89067 -1.477915,3.35365 0.404829,9.76083 1.250585,12.39155 -6.2308893,5.97317 -12.43010004,10.25721 -13.07351574,20.60871 0,8.107 6.56974054,14.6782 14.67324374,14.6782 0.774233,0 2.053227,0.02 3.508279,-0.1702 l 0.684408,9.2573 c 0,0 0.262596,6.7711 -4.890646,7.6887 -2.045233,0.3636 -4.017784,0.7852 -3.450301,-0.5684 1.593849,-0.8301 3.450301,-2.1534 3.450301,-4.3247 0,-2.702 -2.033961,-4.8928 -4.5418321,-4.8928 -2.5088461,0 -4.5428061,2.1908 -4.5428061,4.8928 z m 9.2129942,-41.43364 0.965132,6.95064 c -4.275648,1.3224 -7.382676,5.3092 -7.382676,10.0204 0,5.3313 6.374435,7.818 6.201655,6.5525 -2.485174,-1.0721 -3.406046,-2.277 -3.406046,-5.1558 0,-3.2535 2.223723,-5.9864 5.232938,-6.765 l 2.295243,16.5476 c -0.5162,0.1411 -1.073237,0.2583 -1.676811,0.3525 -8.7343514,-0.1767 -12.8396665,-4.8238 -12.8396665,-12.9305 2.037e-4,-4.5413 5.3479024,-9.7801 10.6102315,-15.57234 z m 4.577106,27.94704 -2.288558,-16.4842 c 0.350125,-0.058 0.710543,-0.084 1.076671,-0.084 3.858398,0 6.986987,3.1293 6.986987,6.9889 -0.07723,3.106 -0.225196,7.7308 -5.7751,9.5792 z m -4.867951,-34.70557 c -1.574586,-5.31257 -0.151213,-7.96012 0.772914,-9.99548 2.18388,-4.80499 4.105162,-6.55271 6.061707,-8.1122 2.544292,0.99809 1.395938,8.1122 1.013965,8.1122 -1.198168,4.19727 -5.496506,7.53399 -7.848586,9.99548 z"
       id="path11"
       inkscape:connector-curvature="0"
       style="fill:#000000;fill-opacity:1;fill-rule:evenodd;stroke:#000000;stroke-width:0.10126948;stroke-opacity:1" />
  </g>
</svg>
