<?xml version="1.0" encoding="UTF-8" standalone="no"?>
<!-- Created with Inkscape (http://www.inkscape.org/) -->

<svg
   xmlns:dc="http://purl.org/dc/elements/1.1/"
   xmlns:cc="http://creativecommons.org/ns#"
   xmlns:rdf="http://www.w3.org/1999/02/22-rdf-syntax-ns#"
   xmlns:svg="http://www.w3.org/2000/svg"
   xmlns="http://www.w3.org/2000/svg"
   xmlns:sodipodi="http://sodipodi.sourceforge.net/DTD/sodipodi-0.dtd"
   xmlns:inkscape="http://www.inkscape.org/namespaces/inkscape"
   width="25"
   height="45"
   id="svg2"
   version="1.1"
   inkscape:version="0.48.5 r10040"
   sodipodi:docname="note_eighth.svg">
  <defs
     id="defs4" />
  <sodipodi:namedview
     id="base"
     pagecolor="#ffffff"
     bordercolor="#666666"
     borderopacity="1.0"
     inkscape:pageopacity="0.0"
     inkscape:pageshadow="2"
     inkscape:zoom="15.839192"
     inkscape:cx="7.863184"
     inkscape:cy="22.791192"
     inkscape:document-units="px"
     inkscape:current-layer="layer1"
     showgrid="false"
     inkscape:window-width="824"
     inkscape:window-height="972"
     inkscape:window-x="-181"
     inkscape:window-y="28"
     inkscape:window-maximized="0"
     inkscape:snap-nodes="false" />
  <metadata
     id="metadata7">
    <rdf:RDF>
      <cc:Work
         rdf:about="">
        <dc:format>image/svg+xml</dc:format>
        <dc:type
           rdf:resource="http://purl.org/dc/dcmitype/StillImage" />
        <dc:title />
      </cc:Work>
    </rdf:RDF>
  </metadata>
  <g
     inkscape:label="Layer 1"
     inkscape:groupmode="layer"
     id="layer1"
     transform="translate(0,-1007.3622)">
    <path
       sodipodi:type="arc"
       style="fill:#000000;fill-opacity:1;stroke:#000000;stroke-width:1;stroke-linecap:round;stroke-linejoin:round;stroke-miterlimit:4;stroke-opacity:1;stroke-dasharray:none;stroke-dashoffset:6.2"
       id="path2996"
       sodipodi:cx="264.65997"
       sodipodi:cy="691.73773"
       sodipodi:rx="24.243662"
       sodipodi:ry="81.822357"
       d="m 288.90364,691.73773 c 0,45.18924 -10.85426,81.82236 -24.24367,81.82236 -13.3894,0 -24.24366,-36.63312 -24.24366,-81.82236 0,-45.18924 10.85426,-81.82236 24.24366,-81.82236 13.38941,0 24.24367,36.63312 24.24367,81.82236 z"
       transform="matrix(0.25643304,-0.12651199,0.02795405,0.05144478,-80.00862,1044.8848)" />
    <path
       style="fill:none;stroke:#000000;stroke-width:1.09640026;stroke-linecap:butt;stroke-linejoin:miter;stroke-miterlimit:4;stroke-opacity:1;stroke-dasharray:none"
       d="m 13.286917,1007.5794 0,38.679"
       id="path3770"
       inkscape:connector-curvature="0" />
    <path
       style="fill:#000000;fill-opacity:1;stroke:none"
       d="m 13.826463,1007.5998 c 0,0 -0.126269,1.5783 1.704632,3.7249 3.108295,2.502 5.152255,4.8751 6.12405,7.2605 1.38896,2.2728 1.694597,5.3692 1.452095,7.8918 -0.820749,5.6821 -5.42957,9.5965 -5.934646,9.3439 -0.252538,-0.5051 4.148054,-4.1628 4.545686,-8.7757 -0.189403,-6.566 -3.156727,-8.46 -3.156727,-8.46 -2.399112,-2.0834 -5.050763,-3.5355 -5.050763,-3.5355 z"
       id="path3845"
       inkscape:connector-curvature="0"
       sodipodi:nodetypes="ccccccccc" />
  </g>
</svg>
