<?xml version="1.0" encoding="UTF-8" standalone="no"?>
<!-- Created with Inkscape (http://www.inkscape.org/) -->

<svg
   xmlns:dc="http://purl.org/dc/elements/1.1/"
   xmlns:cc="http://creativecommons.org/ns#"
   xmlns:rdf="http://www.w3.org/1999/02/22-rdf-syntax-ns#"
   xmlns:svg="http://www.w3.org/2000/svg"
   xmlns="http://www.w3.org/2000/svg"
   xmlns:sodipodi="http://sodipodi.sourceforge.net/DTD/sodipodi-0.dtd"
   xmlns:inkscape="http://www.inkscape.org/namespaces/inkscape"
   width="14"
   height="45"
   id="svg3784"
   version="1.1"
   inkscape:version="0.48.5 r10040"
   sodipodi:docname="note_half.svg">
  <defs
     id="defs3786" />
  <sodipodi:namedview
     id="base"
     pagecolor="#ffffff"
     bordercolor="#666666"
     borderopacity="1.0"
     inkscape:pageopacity="0.0"
     inkscape:pageshadow="2"
     inkscape:zoom="15.839192"
     inkscape:cx="27.82763"
     inkscape:cy="22.516725"
     inkscape:document-units="px"
     inkscape:current-layer="layer1"
     showgrid="false"
     inkscape:window-width="1680"
     inkscape:window-height="988"
     inkscape:window-x="-8"
     inkscape:window-y="-8"
     inkscape:window-maximized="1" />
  <metadata
     id="metadata3789">
    <rdf:RDF>
      <cc:Work
         rdf:about="">
        <dc:format>image/svg+xml</dc:format>
        <dc:type
           rdf:resource="http://purl.org/dc/dcmitype/StillImage" />
        <dc:title />
      </cc:Work>
    </rdf:RDF>
  </metadata>
  <g
     inkscape:label="Layer 1"
     inkscape:groupmode="layer"
     id="layer1"
     transform="translate(0,-1007.3622)">
    <path
       style="fill:#000000;fill-opacity:1;stroke:#000000;stroke-width:0.12864581;stroke-linecap:round;stroke-linejoin:round;stroke-miterlimit:4;stroke-opacity:1;stroke-dasharray:none;stroke-dashoffset:6.2"
       d="m 8.6762766,1041.7722 c -1.3155388,-0.017 -2.7636115,0.3082 -4.1509857,0.9926 -3.4150753,1.6849 -5.1639943,4.9242 -3.90754569,7.2365 1.25644859,2.3124 5.04295009,2.821 8.45802529,1.1361 3.4150755,-1.6848 5.1639945,-4.9243 3.9075465,-7.2365 -0.746018,-1.3729 -2.384328,-2.1088 -4.3070404,-2.1287 z m 1.9371274,2.0432 c 0.953849,0 1.634156,0.2271 1.855981,0.6992 0.507025,1.0791 -1.578199,3.0216 -4.6565969,4.3383 -3.078397,1.3166 -5.9847423,1.5075 -6.4917683,0.4284 -0.50702606,-1.0789 1.5781987,-3.0194 4.6565955,-4.336 1.7315982,-0.7406 3.4094142,-1.1268 4.6357887,-1.1299 z"
       id="path2996"
       inkscape:connector-curvature="0" />
    <path
       style="fill:none;stroke:#000000;stroke-width:1.02875435;stroke-linecap:butt;stroke-linejoin:miter;stroke-miterlimit:4;stroke-opacity:1;stroke-dasharray:none"
       d="m 12.952515,1007.558 0,38.4716"
       id="path3770"
       inkscape:connector-curvature="0" />
  </g>
</svg>
