<?xml version="1.0" encoding="UTF-8" standalone="no"?>
<!-- Created with Inkscape (http://www.inkscape.org/) -->

<svg
   xmlns:dc="http://purl.org/dc/elements/1.1/"
   xmlns:cc="http://creativecommons.org/ns#"
   xmlns:rdf="http://www.w3.org/1999/02/22-rdf-syntax-ns#"
   xmlns:svg="http://www.w3.org/2000/svg"
   xmlns="http://www.w3.org/2000/svg"
   xmlns:sodipodi="http://sodipodi.sourceforge.net/DTD/sodipodi-0.dtd"
   xmlns:inkscape="http://www.inkscape.org/namespaces/inkscape"
   width="14"
   height="45"
   id="svg3784"
   version="1.1"
   inkscape:version="0.48.5 r10040"
   sodipodi:docname="note_half_inv.svg">
  <defs
     id="defs3786" />
  <sodipodi:namedview
     id="base"
     pagecolor="#ffffff"
     bordercolor="#666666"
     borderopacity="1.0"
     inkscape:pageopacity="0.0"
     inkscape:pageshadow="2"
     inkscape:zoom="15.839192"
     inkscape:cx="27.82763"
     inkscape:cy="25.263182"
     inkscape:document-units="px"
     inkscape:current-layer="layer1"
     showgrid="false"
     inkscape:window-width="1680"
     inkscape:window-height="988"
     inkscape:window-x="-8"
     inkscape:window-y="-8"
     inkscape:window-maximized="1" />
  <metadata
     id="metadata3789">
    <rdf:RDF>
      <cc:Work
         rdf:about="">
        <dc:format>image/svg+xml</dc:format>
        <dc:type
           rdf:resource="http://purl.org/dc/dcmitype/StillImage" />
        <dc:title></dc:title>
      </cc:Work>
    </rdf:RDF>
  </metadata>
  <g
     inkscape:label="Layer 1"
     inkscape:groupmode="layer"
     id="layer1"
     transform="translate(0,-1007.3622)">
    <path
       style="fill:#000000;fill-opacity:1;stroke:#000000;stroke-width:0.12864581;stroke-linecap:round;stroke-linejoin:round;stroke-miterlimit:4;stroke-opacity:1;stroke-dasharray:none;stroke-dashoffset:6.2"
       d="m 4.9999903,1017.9722 c 1.3156,0.017 2.7636,-0.3082 4.151,-0.9926 3.4151007,-1.6849 5.1640007,-4.9242 3.9076007,-7.2365 -1.2565,-2.3124 -5.0430007,-2.821 -8.4581007,-1.1361 -3.4151005,1.6848 -5.16400049,4.9243 -3.90750049,7.2365 0.74599999,1.3729 2.38429999,2.1088 4.30700049,2.1287 z m -1.9371005,-2.0432 c -0.9539,0 -1.6342,-0.2271 -1.856,-0.6992 -0.50699999,-1.0791 1.5782,-3.0216 4.6566005,-4.3383 3.0784,-1.3166 5.9847007,-1.5075 6.4918007,-0.4284 0.507,1.0789 -1.5782,3.0194 -4.6566007,4.336 -1.7316,0.7406 -3.4094,1.1268 -4.6358005,1.1299 z"
       id="path2996"
       inkscape:connector-curvature="0" />
    <path
       style="fill:none;stroke:#000000;stroke-width:1.02875435;stroke-linecap:butt;stroke-linejoin:miter;stroke-miterlimit:4;stroke-opacity:1;stroke-dasharray:none"
       d="m 0.72377981,1052.1864 0,-38.4716"
       id="path3770"
       inkscape:connector-curvature="0" />
  </g>
</svg>
