<?xml version="1.0" encoding="UTF-8" standalone="no"?>
<!-- Created with Inkscape (http://www.inkscape.org/) -->

<svg
   xmlns:dc="http://purl.org/dc/elements/1.1/"
   xmlns:cc="http://creativecommons.org/ns#"
   xmlns:rdf="http://www.w3.org/1999/02/22-rdf-syntax-ns#"
   xmlns:svg="http://www.w3.org/2000/svg"
   xmlns="http://www.w3.org/2000/svg"
   xmlns:sodipodi="http://sodipodi.sourceforge.net/DTD/sodipodi-0.dtd"
   xmlns:inkscape="http://www.inkscape.org/namespaces/inkscape"
   width="10"
   height="34"
   id="svg3784"
   version="1.1"
   inkscape:version="0.48.5 r10040"
   sodipodi:docname="note_half.svg">
  <defs
     id="defs3786" />
  <sodipodi:namedview
     id="base"
     pagecolor="#ffffff"
     bordercolor="#666666"
     borderopacity="1.0"
     inkscape:pageopacity="0.0"
     inkscape:pageshadow="2"
     inkscape:zoom="15.839192"
     inkscape:cx="27.82763"
     inkscape:cy="18.62222"
     inkscape:document-units="px"
     inkscape:current-layer="layer1"
     showgrid="false"
     inkscape:window-width="1680"
     inkscape:window-height="988"
     inkscape:window-x="-8"
     inkscape:window-y="-8"
     inkscape:window-maximized="1" />
  <metadata
     id="metadata3789">
    <rdf:RDF>
      <cc:Work
         rdf:about="">
        <dc:format>image/svg+xml</dc:format>
        <dc:type
           rdf:resource="http://purl.org/dc/dcmitype/StillImage" />
        <dc:title></dc:title>
      </cc:Work>
    </rdf:RDF>
  </metadata>
  <g
     inkscape:label="Layer 1"
     inkscape:groupmode="layer"
     id="layer1"
     transform="translate(0,-1018.3622)">
    <path
       style="fill:#000000;fill-opacity:1;stroke:#000000;stroke-width:0.09270169;stroke-linecap:round;stroke-linejoin:round;stroke-miterlimit:4;stroke-opacity:1;stroke-dasharray:none;stroke-dashoffset:6.2"
       d="m 3.710669,1026.1231 c 0.9479724,0.012 1.9914482,-0.2221 2.9911849,-0.7153 2.4608906,-1.2141 3.7211551,-3.5484 2.8157629,-5.2146 -0.9053922,-1.6663 -3.6339311,-2.0328 -6.0948216,-0.8187 -2.4608907,1.2141 -3.7211552,3.5485 -2.8157631,5.2146 0.5375771,0.9894 1.7181376,1.5197 3.1036369,1.534 z m -1.3958868,-1.4724 c -0.6873396,0 -1.1775667,-0.1636 -1.3374132,-0.5038 -0.3653599,-0.7776 1.1372443,-2.1774 3.3555266,-3.1261 2.2182814,-0.9488 4.3125831,-1.0864 4.6779442,-0.3088 0.3653611,0.7775 -1.1372442,2.1758 -3.3555255,3.1246 -1.2477832,0.5336 -2.4568112,0.8119 -3.3405321,0.8141 z"
       id="path2996"
       inkscape:connector-curvature="0" />
    <path
       style="fill:none;stroke:#000000;stroke-width:0.4797892;stroke-linecap:butt;stroke-linejoin:miter;stroke-miterlimit:4;stroke-opacity:1;stroke-dasharray:none"
       d="m 0.5609859,1050.7777 0,-27.7225"
       id="path3770"
       inkscape:connector-curvature="0" />
  </g>
</svg>
